<svg width="768" height="127" fill="none" xmlns="http://www.w3.org/2000/svg"><path fill-rule="evenodd" clip-rule="evenodd" d="M-1309.73 126.684v-15.332H505.154c5.506 0 9.986-4.376 10.018-9.792v-3.01c0-7.247 5.979-13.145 13.362-13.145l648.466.831v15.334l-651.811-.832c-5.505 0-9.986 4.378-10.017 9.792v2.996c0 7.261-5.979 13.158-13.363 13.158H-1309.73Z" fill="#1550ED"/><path fill-rule="evenodd" clip-rule="evenodd" d="M-1309.73 41.28V25.947H505.154c5.506 0 9.986-4.376 10.018-9.792v-3.01C515.172 5.897 521.151 0 528.534 0L1177 .832v15.333l-651.811-.832c-5.505 0-9.986 4.378-10.017 9.792v2.997c0 7.26-5.979 13.157-13.363 13.157H-1309.73Z" fill="#fff"/><path fill-rule="evenodd" clip-rule="evenodd" d="M-1314 69.747V54.426H505.5c5.504 0 9.984-4.378 10.015-9.798v-3.01c0-7.267 5.978-13.15 13.359-13.15l646.706.831v15.338l-650.05-.832c-5.504 0-9.983 4.363-10.015 9.796v2.996c0 7.266-5.977 13.15-13.359 13.15H-1314Z" fill="#FD2F32"/><path fill-rule="evenodd" clip-rule="evenodd" d="M-1314 98.215v-15.32H505.5c5.504 0 9.984-4.379 10.015-9.798v-3.01c0-7.267 5.978-13.151 13.359-13.151l646.706.832v15.338l-650.05-.832c-5.504 0-9.983 4.362-10.015 9.796v2.996c0 7.266-5.977 13.15-13.359 13.15H-1314Z" fill="#98212B"/></svg>