<svg xmlns="http://www.w3.org/2000/svg" width="198" height="45" fill="none"><script/><path fill-rule="evenodd" clip-rule="evenodd" d="m31.768 33.318-3.026-6.094h-8.328c-.58 0-1.055.473-1.055 1.057v.716c0 .78-.632 1.41-1.41 1.41h-7.91l-1.51 3.035H6.81l2.499-5.018h8.994c.581 0 1.056-.473 1.056-1.057v-.716c0-.78.631-1.412 1.41-1.412h6.984l-.742-1.487h-6.597c-.579 0-1.054.471-1.055 1.055v.718c0 .78-.632 1.412-1.41 1.412H10.05l.988-1.985h7.265c.581 0 1.054-.471 1.056-1.053v-.718c0-.78.631-1.412 1.41-1.412h5.25l-.742-1.487h-4.863c-.58 0-1.054.471-1.055 1.053v.717c0 .78-.632 1.415-1.41 1.415h-6.171l.99-1.987h5.535c.581 0 1.054-.471 1.056-1.053v-.718c0-.78.629-1.412 1.408-1.412h3.519L19.31 8.331h5.611a2.48 2.48 0 0 1 2.216 1.372L38.91 33.318h-7.142ZM22.459.191C10.107.19.093 10.219.093 22.59c0 12.373 10.014 22.4 22.366 22.4 12.353 0 22.369-10.027 22.369-22.4 0-12.371-10.016-22.4-22.369-22.4ZM62.158 24.42h4.546l-2.246-6.486-2.3 6.485Zm5.868 3.811h-7.242l-1.348 3.812h-4.388l7.057-18.768h4.837l6.978 18.768h-4.546l-1.348-3.812Zm7.386 3.812V18.887h3.833v1.509c.66-1.165 2.352-1.906 3.78-1.906 1.875 0 3.223.767 3.884 2.064 1.032-1.482 2.3-2.064 4.07-2.064 2.486 0 4.864 1.456 4.864 5.03v8.523h-3.885V24.42c0-1.245-.66-2.224-2.088-2.224-1.427 0-2.194 1.085-2.194 2.25v7.597h-3.964V24.42c0-1.245-.661-2.224-2.115-2.224-1.4 0-2.167 1.085-2.167 2.276v7.57h-4.018Zm31.174-8.153c-.052-1.006-.739-2.224-2.643-2.224-1.692 0-2.537 1.244-2.617 2.224h5.26Zm3.648 4.367c-.635 2.277-2.723 4.183-6.053 4.183-3.621 0-6.846-2.594-6.846-7.015 0-4.235 3.146-6.936 6.555-6.936 4.071 0 6.582 2.515 6.582 6.75 0 .556-.053 1.165-.08 1.245h-9.144c.078 1.482 1.426 2.54 2.986 2.54 1.454 0 2.273-.688 2.643-1.72l3.357.953Zm10.085-5.4a5.463 5.463 0 0 0-1.269-.132c-1.612 0-3.065.953-3.065 3.574v5.744h-4.018V18.887h3.886v1.774c.687-1.483 2.352-1.906 3.409-1.906.396 0 .793.053 1.057.132v3.97Zm1.493 9.186h4.018V18.887h-4.018v13.156Zm1.982-19.535a2.365 2.365 0 0 1 2.379 2.355 2.365 2.365 0 0 1-2.379 2.356c-1.269 0-2.326-1.059-2.326-2.356s1.057-2.355 2.326-2.355Zm3.518 10.191c0-5.85 4.441-9.82 9.674-9.82 5.63 0 8.114 3.626 8.723 6.326l-3.939 1.244c-.291-1.297-1.48-3.494-4.784-3.494-2.511 0-5.339 1.8-5.339 5.744 0 3.52 2.59 5.558 5.392 5.558 3.251 0 4.546-2.17 4.916-3.52l3.991 1.138c-.608 2.594-3.092 6.565-8.907 6.565-5.392 0-9.727-3.891-9.727-9.741Zm29.567 2.741c0-2.224-1.427-3.256-2.96-3.256-1.507 0-2.961 1.032-2.961 3.256 0 2.197 1.454 3.282 2.961 3.282 1.533 0 2.96-1.059 2.96-3.282Zm4.018 0c0 4.076-3.04 6.988-6.978 6.988-3.912 0-6.978-2.912-6.978-6.988 0-4.077 3.066-6.962 6.978-6.962 3.938 0 6.978 2.885 6.978 6.962Zm9.844-2.593a5.463 5.463 0 0 0-1.269-.133c-1.612 0-3.066.954-3.066 3.574v5.744h-4.018V18.877h3.886v1.773c.687-1.482 2.352-1.906 3.409-1.906.397 0 .793.053 1.058.133v3.97Zm8.419-.662c-1.56 0-2.96 1.059-2.96 3.256 0 2.17 1.4 3.282 2.96 3.282 1.585 0 2.987-1.085 2.987-3.282s-1.402-3.256-2.987-3.256Zm-6.926 14.877V18.877h3.886v1.35c.555-.848 1.983-1.668 3.859-1.668 3.806 0 6.106 2.912 6.106 6.855 0 4.024-2.59 6.91-6.265 6.91-1.691 0-2.959-.583-3.568-1.324v6.062h-4.018Zm18.254-9.371c.053.9.687 1.774 2.062 1.774 1.031 0 1.533-.556 1.533-1.139 0-.476-.318-.873-1.295-1.085l-1.507-.344c-2.802-.609-3.912-2.197-3.912-4.05 0-2.409 2.115-4.367 5.048-4.367 3.806 0 5.128 2.382 5.26 3.918l-3.329.608c-.106-.873-.661-1.615-1.877-1.615-.767 0-1.428.45-1.428 1.139 0 .555.449.873 1.031.979l1.745.344c2.722.556 4.044 2.197 4.044 4.13 0 2.25-1.718 4.446-5.234 4.446-4.124 0-5.444-2.673-5.55-4.129l3.409-.609Z" fill="#fff"/></svg>