<svg width="198" height="45" viewBox="0 0 198 45" fill="none" xmlns="http://www.w3.org/2000/svg"><script xmlns=""/>
<path fill-rule="evenodd" clip-rule="evenodd" d="M31.7676 33.318L28.7424 27.2236H20.4141C19.8331 27.2236 19.3586 27.6969 19.3586 28.2808V28.9965C19.3586 29.7762 18.7272 30.4066 17.9486 30.4066H10.0387L8.52995 33.4422H6.81007L9.30854 28.4243H18.303C18.8841 28.4243 19.3586 27.951 19.3586 27.3672V26.6515C19.3586 25.8717 19.99 25.2394 20.7686 25.2394H27.7527L27.0109 23.7517H20.4141C19.835 23.7517 19.3605 24.223 19.3586 24.8068V25.5245C19.3586 26.3043 18.7272 26.9366 17.9486 26.9366H10.0503L11.0381 24.9523H18.303C18.8841 24.9523 19.3566 24.481 19.3586 23.8991V23.1814C19.3586 22.4017 19.99 21.7693 20.7686 21.7693H26.0192L25.2774 20.2816H20.4141C19.8331 20.2816 19.3605 20.753 19.3586 21.3349V22.0525C19.3586 22.8323 18.7272 23.4665 17.9486 23.4665H11.778L12.7677 21.4803H18.303C18.8841 21.4803 19.3566 21.009 19.3586 20.4271V19.7094C19.3586 18.9297 19.988 18.2974 20.7666 18.2974H24.2858L19.3102 8.33141H24.9211C25.8585 8.33141 26.7165 8.86287 27.1368 9.70274L38.9105 33.318H31.7676ZM22.4594 0.190674C10.1065 0.190674 0.0932617 10.2187 0.0932617 22.5898C0.0932617 34.9629 10.1065 44.9909 22.4594 44.9909C34.8123 44.9909 44.8275 34.9629 44.8275 22.5898C44.8275 10.2187 34.8123 0.190674 22.4594 0.190674Z" fill="white"/>
<path fill-rule="evenodd" clip-rule="evenodd" d="M62.1584 24.4194H66.7041L64.458 17.934L62.1584 24.4194ZM68.0258 28.231H60.7841L59.4361 32.0427H55.0479L62.105 13.2751H66.9421L73.9204 32.0427H69.3738L68.0258 28.231Z" fill="white"/>
<path fill-rule="evenodd" clip-rule="evenodd" d="M75.4116 32.0427V18.887H79.2449V20.3957C79.9058 19.2311 81.597 18.4897 83.0246 18.4897C84.9004 18.4897 86.2484 19.2573 86.9094 20.5543C87.9406 19.0724 89.2088 18.4897 90.9796 18.4897C93.4649 18.4897 95.8431 19.9455 95.8431 23.5191V32.0427H91.9584V24.4195C91.9584 23.175 91.2974 22.1958 89.8698 22.1958C88.443 22.1958 87.6762 23.2811 87.6762 24.4457V32.0427H83.7118V24.4195C83.7118 23.175 83.0507 22.1958 81.597 22.1958C80.1963 22.1958 79.4295 23.2811 79.4295 24.472V32.0427H75.4116Z" fill="white"/>
<path fill-rule="evenodd" clip-rule="evenodd" d="M106.586 23.8897C106.534 22.8838 105.847 21.6661 103.943 21.6661C102.251 21.6661 101.406 22.91 101.326 23.8897H106.586ZM110.234 28.257C109.599 30.5338 107.511 32.4395 104.181 32.4395C100.56 32.4395 97.3354 29.8456 97.3354 25.4247C97.3354 21.1897 100.481 18.4895 103.89 18.4895C107.961 18.4895 110.472 21.0043 110.472 25.2397C110.472 25.7954 110.419 26.4043 110.392 26.4836H101.248C101.326 27.9661 102.674 29.0245 104.234 29.0245C105.688 29.0245 106.507 28.3364 106.877 27.3043L110.234 28.257Z" fill="white"/>
<path fill-rule="evenodd" clip-rule="evenodd" d="M120.319 22.8574C119.87 22.7519 119.447 22.725 119.05 22.725C117.438 22.725 115.985 23.6785 115.985 26.2986V32.0429H111.967V18.8872H115.853V20.6606C116.54 19.1783 118.205 18.7549 119.262 18.7549C119.658 18.7549 120.055 18.8078 120.319 18.8872V22.8574Z" fill="white"/>
<path fill-rule="evenodd" clip-rule="evenodd" d="M121.812 32.0426H125.83V18.8869H121.812V32.0426ZM123.794 12.5076C125.115 12.5076 126.173 13.566 126.173 14.8631C126.173 16.1605 125.115 17.219 123.794 17.219C122.525 17.219 121.468 16.1605 121.468 14.8631C121.468 13.566 122.525 12.5076 123.794 12.5076Z" fill="white"/>
<path fill-rule="evenodd" clip-rule="evenodd" d="M127.312 22.6987C127.312 16.8488 131.753 12.8782 136.986 12.8782C142.616 12.8782 145.1 16.5047 145.709 19.2049L141.77 20.4488C141.479 19.1518 140.29 16.9546 136.986 16.9546C134.475 16.9546 131.647 18.7547 131.647 22.6987C131.647 26.2193 134.237 28.2575 137.039 28.2575C140.29 28.2575 141.585 26.0868 141.955 24.7368L145.946 25.8752C145.338 28.4691 142.854 32.44 137.039 32.44C131.647 32.44 127.312 28.5485 127.312 22.6987Z" fill="white"/>
<path fill-rule="evenodd" clip-rule="evenodd" d="M156.879 25.4398C156.879 23.2162 155.452 22.1839 153.919 22.1839C152.412 22.1839 150.958 23.2162 150.958 25.4398C150.958 27.6367 152.412 28.7219 153.919 28.7219C155.452 28.7219 156.879 27.6635 156.879 25.4398ZM160.897 25.4398C160.897 29.5162 157.857 32.428 153.919 32.428C150.007 32.428 146.941 29.5162 146.941 25.4398C146.941 21.3635 150.007 18.478 153.919 18.478C157.857 18.478 160.897 21.3635 160.897 25.4398Z" fill="white"/>
<path fill-rule="evenodd" clip-rule="evenodd" d="M170.741 22.8469C170.292 22.7414 169.869 22.7144 169.472 22.7144C167.86 22.7144 166.406 23.668 166.406 26.288V32.0323H162.388V18.8766H166.274V20.65C166.961 19.1678 168.626 18.7441 169.683 18.7441C170.08 18.7441 170.476 18.7973 170.741 18.8766V22.8469Z" fill="white"/>
<path fill-rule="evenodd" clip-rule="evenodd" d="M179.16 22.1854C177.6 22.1854 176.2 23.2439 176.2 25.4413C176.2 27.6118 177.6 28.7234 179.16 28.7234C180.745 28.7234 182.147 27.6382 182.147 25.4413C182.147 23.2439 180.745 22.1854 179.16 22.1854ZM172.234 37.0616V18.8766H176.12V20.2266C176.675 19.3793 178.103 18.5588 179.979 18.5588C183.785 18.5588 186.085 21.4705 186.085 25.4145C186.085 29.4384 183.495 32.3232 179.82 32.3232C178.129 32.3232 176.861 31.7413 176.252 31V37.0616H172.234Z" fill="white"/>
<path fill-rule="evenodd" clip-rule="evenodd" d="M190.488 27.6914C190.541 28.5912 191.175 29.4648 192.55 29.4648C193.581 29.4648 194.083 28.9091 194.083 28.3264C194.083 27.85 193.765 27.453 192.788 27.2412L191.281 26.8971C188.479 26.2882 187.369 24.7002 187.369 22.8471C187.369 20.4384 189.484 18.4797 192.417 18.4797C196.223 18.4797 197.545 20.8618 197.677 22.3975L194.348 23.0061C194.242 22.1327 193.687 21.3914 192.471 21.3914C191.704 21.3914 191.043 21.8415 191.043 22.5297C191.043 23.0854 191.492 23.4034 192.074 23.5089L193.819 23.853C196.541 24.4093 197.863 26.0504 197.863 27.9823C197.863 30.2323 196.145 32.4295 192.629 32.4295C188.505 32.4295 187.185 29.7559 187.079 28.3002L190.488 27.6914Z" fill="white"/>
</svg>