<svg width="768" height="127" viewBox="0 0 768 127" fill="none" xmlns="http://www.w3.org/2000/svg">
<path fill-rule="evenodd" clip-rule="evenodd" d="M-1309.73 126.684V111.352H505.154C510.66 111.352 515.14 106.976 515.172 101.56V98.5499C515.172 91.303 521.151 85.4047 528.534 85.4047L1177 86.2364V101.57L525.189 100.738C519.684 100.738 515.203 105.116 515.172 110.53V113.526C515.172 120.787 509.193 126.684 501.809 126.684H-1309.73Z" fill="#1550ED"/>
<path fill-rule="evenodd" clip-rule="evenodd" d="M-1309.73 41.2794V25.9476H505.154C510.66 25.9476 515.14 21.5716 515.172 16.1558V13.1453C515.172 5.89838 521.151 -1.14441e-05 528.534 -1.14441e-05L1177 0.83176V16.1651L525.189 15.3333C519.684 15.3333 515.203 19.711 515.172 25.1252V28.1217C515.172 35.3826 509.193 41.2794 501.809 41.2794H-1309.73Z" fill="white"/>
<path fill-rule="evenodd" clip-rule="evenodd" d="M-1314 69.7466V54.4256H505.5C511.004 54.4256 515.484 50.0477 515.515 44.6281V41.6179C515.515 34.351 521.493 28.4672 528.874 28.4672L1175.58 29.299V44.6371L525.53 43.8053C520.026 43.8053 515.547 48.1677 515.515 53.6012V56.5975C515.515 63.8629 509.538 69.7466 502.156 69.7466H-1314Z" fill="#FD2F32"/>
<path fill-rule="evenodd" clip-rule="evenodd" d="M-1314 98.2154V82.8943H505.5C511.004 82.8943 515.484 78.5165 515.515 73.0969V70.0867C515.515 62.8197 521.493 56.936 528.874 56.936L1175.58 57.7677V73.1059L525.53 72.2741C520.026 72.2741 515.547 76.6365 515.515 82.07V85.0662C515.515 92.3316 509.538 98.2154 502.156 98.2154H-1314Z" fill="#98212B"/>
</svg>
