<svg width="68" height="68" viewBox="0 0 68 68" fill="none" xmlns="http://www.w3.org/2000/svg">
<circle cx="33.8991" cy="33.8991" r="33.8991" fill="#1550ED"/>
<path fill-rule="evenodd" clip-rule="evenodd" d="M34 17C35.1046 17 36 17.8954 36 19V49C36 50.1046 35.1046 51 34 51C32.8954 51 32 50.1046 32 49V19C32 17.8954 32.8954 17 34 17Z" fill="white"/>
<path fill-rule="evenodd" clip-rule="evenodd" d="M51 34C51 35.1046 50.1046 36 49 36L19 36C17.8954 36 17 35.1046 17 34C17 32.8954 17.8954 32 19 32L49 32C50.1046 32 51 32.8954 51 34Z" fill="white"/>
</svg>
